<svg width="128" height="74" viewBox="0 0 128 74" fill="none" xmlns="http://www.w3.org/2000/svg">
<path d="M91.2461 60.0357C91.1661 60.7551 90.9263 61.3945 90.6066 61.9541C90.2869 62.5136 89.8872 62.9932 89.4076 63.4728C88.928 63.8724 88.3685 64.1922 87.729 64.432C87.0896 64.6718 86.3702 64.7517 85.6508 64.7517C84.8514 64.7517 84.0521 64.5918 83.4127 64.352C82.6933 64.1123 82.1337 63.6327 81.6541 63.0731C81.1745 62.5136 80.7749 61.7942 80.5351 60.9949C80.2953 60.1955 80.1354 59.2364 80.1354 58.1173C80.1354 56.9983 80.2953 56.0391 80.5351 55.3197C80.7749 54.5203 81.1745 53.8809 81.6541 53.4013C82.1337 52.9217 82.7732 52.522 83.4926 52.2822C84.212 52.0424 85.0113 51.8826 85.8106 51.8826C86.61 51.8826 87.3294 51.9625 87.9688 52.2023C88.6083 52.4421 89.1678 52.7618 89.6474 53.1615C90.127 53.5611 90.5267 54.0407 90.7665 54.6802C91.0862 55.2397 91.2461 55.8792 91.2461 56.5986H87.9688C87.8889 55.9591 87.6491 55.4795 87.2494 55.0799C86.8498 54.7601 86.2902 54.5203 85.7307 54.5203C85.411 54.5203 85.0912 54.6003 84.7715 54.6802C84.4518 54.7601 84.212 54.9999 83.9722 55.2397C83.7324 55.4795 83.5725 55.8792 83.4127 56.3588C83.2528 56.8384 83.2528 57.3979 83.2528 58.0374C83.2528 59.3962 83.4926 60.3554 83.9722 60.9949C84.4518 61.6343 85.0113 61.9541 85.6508 61.9541C86.2902 61.9541 86.8498 61.7942 87.2494 61.3945C87.729 61.0748 87.9688 60.5153 88.0488 59.8758H91.2461V60.0357ZM74.6201 50.7635V47.7261H77.8174V50.7635H74.6201ZM74.6201 64.5119V52.2822H77.8174V64.5119H74.6201ZM69.0248 64.5119V57.0782C69.0248 56.3588 68.8649 55.7193 68.4653 55.2397C68.1455 54.7601 67.6659 54.5203 67.1064 54.5203C66.5469 54.5203 65.9874 54.7601 65.5877 55.2397C65.188 55.7193 65.0282 56.3588 65.0282 57.0782V64.352H61.8309V56.9983C61.8309 56.5187 61.8309 56.119 61.7509 55.7993C61.671 55.4795 61.5911 55.2397 61.4312 55.0799C61.2714 54.92 61.0316 54.7601 60.7918 54.6802C60.552 54.6003 60.2322 54.6003 59.9125 54.6003C58.6336 54.6003 57.9142 55.3996 57.9142 56.9983V64.432H54.7169V52.2822H57.7543V54.0407C58.154 53.2414 58.6336 52.6819 59.273 52.3622C59.8326 52.0424 60.552 51.8826 61.3513 51.8826C61.7509 51.8826 62.1506 51.8826 62.4703 51.9625C62.7901 52.0424 63.1098 52.1224 63.3496 52.2822C63.5894 52.4421 63.8292 52.6819 64.069 52.9217C64.3088 53.1615 64.5486 53.4812 64.7884 53.8009C65.1081 53.0816 65.5877 52.602 66.0673 52.2822C66.6268 51.9625 67.2663 51.8026 68.0656 51.8026C68.7051 51.8026 69.2646 51.8826 69.7442 52.1224C70.2238 52.3622 70.7034 52.602 71.0231 53.0016C71.4228 53.4013 71.6626 53.8009 71.9024 54.2805C72.1422 54.7601 72.2221 55.3197 72.2221 55.8792V64.352H69.0248V64.5119ZM49.2815 64.5119C49.2015 64.1922 49.1216 63.7925 49.1216 63.3928C48.7219 63.7925 48.2423 64.1922 47.6029 64.432C46.9634 64.6718 46.244 64.8316 45.4447 64.8316C44.0059 64.8316 42.9668 64.5119 42.3273 63.8724C41.6879 63.233 41.3681 62.4337 41.3681 61.4745C41.3681 60.5952 41.528 59.8758 41.7678 59.3962C42.0875 58.8367 42.4073 58.437 42.9668 58.1972C43.4464 57.8775 44.0858 57.7176 44.7253 57.5578C45.4447 57.3979 46.1641 57.318 46.9634 57.1581C47.7627 57.0782 48.3223 56.9183 48.642 56.6785C48.9617 56.5187 49.0417 56.1989 49.0417 55.7193C49.0417 55.3197 48.8818 54.9999 48.4821 54.7601C48.0825 54.5203 47.6029 54.4404 46.9634 54.4404C46.244 54.4404 45.6845 54.6003 45.3648 54.92C45.045 55.2397 44.8052 55.7193 44.7253 56.1989H41.6879C41.6879 55.5595 41.8477 54.9999 42.0076 54.4404C42.1675 53.8809 42.4872 53.4812 42.9668 53.0816C43.3665 52.6819 43.926 52.4421 44.6454 52.2023C45.3648 51.9625 46.1641 51.8826 47.1233 51.8826C48.0825 51.8826 48.8818 51.9625 49.6012 52.2023C50.2407 52.4421 50.8002 52.7618 51.1998 53.1615C51.5995 53.5611 51.9192 54.0407 52.0791 54.6802C52.239 55.3197 52.3189 55.9591 52.3189 56.7584V64.5119H49.2815ZM49.1216 58.517C48.9617 58.6768 48.7219 58.8367 48.4022 58.9166C48.0825 58.9966 47.6029 59.1564 47.0434 59.2364C46.0842 59.3962 45.4447 59.636 45.125 59.9558C44.8052 60.2755 44.5654 60.6752 44.5654 61.1547C44.5654 62.034 45.125 62.5136 46.1641 62.5136C46.5638 62.5136 46.9634 62.4337 47.2831 62.2738C47.6029 62.1139 47.9226 61.9541 48.2423 61.7143C48.4821 61.4745 48.7219 61.1547 48.8818 60.835C49.0417 60.5153 49.1216 60.1955 49.1216 59.7959V58.517ZM36.0127 64.5119V57.0782C36.0127 56.119 35.8528 55.4795 35.5331 55.1598C35.2133 54.8401 34.6538 54.6802 33.9344 54.6802C32.2558 54.6802 31.4565 55.6394 31.4565 57.4778V64.5119H28.2592V52.2822H31.3766V54.0407C31.7762 53.3213 32.2558 52.8418 32.8953 52.4421C33.5347 52.1224 34.3341 51.8826 35.2933 51.8826C35.8528 51.8826 36.4123 51.9625 36.8919 52.1224C37.3715 52.2822 37.8511 52.522 38.1708 52.9217C38.4906 53.2414 38.8103 53.721 39.0501 54.2006C39.2899 54.6802 39.3698 55.3197 39.3698 55.9591V64.432H36.0127V64.5119ZM22.584 62.8333C22.3442 63.3929 21.9445 63.7925 21.3051 64.1122C20.6656 64.432 20.0261 64.5918 19.2268 64.5918C18.5874 64.5918 17.9479 64.5119 17.4683 64.2721C16.9088 64.0323 16.4292 63.7925 16.0295 63.3928C15.6299 62.9932 15.3101 62.5136 15.0703 62.034C14.8305 61.4745 14.7506 60.9149 14.7506 60.1955V52.2822H17.9479V59.716C17.9479 61.2347 18.6673 62.034 20.0261 62.034C20.7455 62.034 21.385 61.7942 21.8646 61.3945C22.3442 60.9949 22.584 60.4354 22.584 59.716V52.2822H25.7813V64.8316C25.7813 65.7109 25.6214 66.4303 25.3816 67.1497C25.0619 67.8691 24.6622 68.4286 24.1826 68.8283C23.703 69.3079 23.0636 69.6276 22.4241 69.8674C21.7047 70.1072 20.9853 70.2671 20.186 70.2671C18.3476 70.2671 16.9887 69.7875 16.1095 68.9082C15.2302 68.0289 14.7506 66.75 14.7506 65.1514H17.788C17.788 65.8708 18.0278 66.4303 18.4275 66.83C18.8272 67.2296 19.4666 67.4694 20.3459 67.4694C20.6656 67.4694 20.9054 67.3895 21.2251 67.3096C21.4649 67.1497 21.7047 66.9898 21.9445 66.75C22.1843 66.5102 22.3442 66.2704 22.4241 65.9507C22.584 65.631 22.584 65.2313 22.584 64.8316V62.8333ZM9.39512 64.5119V62.9932C8.67573 64.1922 7.47674 64.8316 5.95802 64.8316C5.15869 64.8316 4.4393 64.6718 3.79984 64.352C3.16038 64.0323 2.60085 63.6327 2.12126 63.0731C1.64166 62.5136 1.32193 61.7942 1.0022 60.9949C0.762404 60.1955 0.602539 59.2364 0.602539 58.1972C0.602539 57.238 0.682471 56.4387 0.922269 55.6394C1.16207 54.8401 1.4818 54.2006 1.88146 53.6411C2.28112 53.0816 2.84065 52.6819 3.48011 52.3622C4.11957 52.0424 4.83896 51.8826 5.63829 51.8826C7.15701 51.8826 8.356 52.522 9.23525 53.8009V47.7261H12.4326V64.432H9.39512V64.5119ZM6.67741 62.1939C7.47674 62.1939 8.1162 61.8741 8.59579 61.2347C9.15532 60.5952 9.39512 59.716 9.39512 58.6768C9.39512 56.0391 8.51586 54.6802 6.67741 54.6802C4.83896 54.6802 3.87977 55.9591 3.87977 58.437C3.87977 59.5561 4.11957 60.4353 4.6791 61.0748C5.23863 61.7942 5.87809 62.1939 6.67741 62.1939Z" fill="#1280C4"/>
<path d="M115.466 70.2671V52.2822H118.583V53.801C119.303 52.602 120.502 51.9625 122.02 51.9625C122.82 51.9625 123.459 52.1224 124.178 52.4421C124.818 52.7618 125.377 53.1615 125.857 53.721C126.337 54.2805 126.656 54.9999 126.976 55.7993C127.216 56.5986 127.376 57.5578 127.376 58.5969C127.376 59.5561 127.296 60.3554 127.056 61.1547C126.816 61.9541 126.496 62.5935 126.097 63.1531C125.697 63.7126 125.138 64.1122 124.498 64.432C123.859 64.7517 123.139 64.9116 122.34 64.9116C120.821 64.9116 119.622 64.2721 118.743 62.9932V70.347H115.466V70.2671ZM121.301 62.034C123.139 62.034 124.098 60.7551 124.098 58.2772C124.098 57.1581 123.859 56.2789 123.299 55.6394C122.82 54.92 122.1 54.6003 121.301 54.6003C120.502 54.6003 119.862 54.92 119.382 55.5595C118.823 56.1989 118.583 57.0782 118.583 58.1173C118.583 60.7551 119.462 62.034 121.301 62.034ZM106.593 64.5119V52.2822H109.631V53.721C109.871 53.3214 110.19 53.0016 110.43 52.7618C110.75 52.522 110.99 52.3622 111.309 52.2023C111.629 52.0424 111.949 51.9625 112.268 51.9625C112.588 51.9625 112.908 51.8826 113.228 51.8826H113.627V55.1598C113.308 55.0799 113.068 55.0799 112.748 55.0799C110.75 55.0799 109.791 56.0391 109.791 58.0374V64.432H106.593V64.5119ZM96.1221 59.2364C96.202 60.1956 96.4418 60.9149 96.9214 61.4745C97.401 62.034 98.0405 62.2738 98.8398 62.2738C99.3993 62.2738 99.799 62.1139 100.279 61.8741C100.678 61.6343 100.918 61.3146 101.078 60.835H104.435C104.035 62.1139 103.396 63.0731 102.437 63.7126C101.478 64.432 100.359 64.7517 99.0796 64.7517C95.003 64.7517 92.9248 62.5136 92.9248 58.1173C92.9248 57.1581 93.0847 56.2789 93.3245 55.5595C93.5643 54.8401 93.9639 54.1207 94.4435 53.5612C94.9231 53.0016 95.5626 52.602 96.282 52.2822C97.0014 51.9625 97.8806 51.8826 98.7599 51.8826C100.678 51.8826 102.117 52.522 103.076 53.721C104.035 54.92 104.515 56.7585 104.515 59.1564H96.1221V59.2364ZM101.238 57.1581C101.238 56.6785 101.158 56.2789 100.998 55.9591C100.838 55.6394 100.678 55.3197 100.438 55.0799C100.199 54.8401 99.9589 54.6802 99.6391 54.6003C99.3194 54.5203 98.9997 54.4404 98.6799 54.4404C98.0405 54.4404 97.481 54.6802 97.0014 55.1598C96.5218 55.6394 96.282 56.2789 96.202 57.1581H101.238Z" fill="#7CC24B"/>
<path d="M98.6795 70.0273C98.5995 70.1072 98.5995 70.1072 98.6795 70.0273L96.7611 70.1072V70.9864H97.9601C97.9601 70.9864 97.9601 70.9864 98.04 70.9864C98.04 70.9864 98.04 70.9865 98.04 71.0664V71.6259C98.04 71.6259 98.04 71.6259 98.04 71.7058C98.04 71.7058 98.04 71.7058 97.9601 71.7058H96.7611V72.5851H98.5995C98.5995 72.5851 98.5995 72.5851 98.6795 72.5851C98.6795 72.5851 98.6795 72.5851 98.6795 72.665V73.2246C98.6795 73.2246 98.6795 73.2246 98.6795 73.3045C98.6795 73.3045 98.6795 73.3045 98.5995 73.3045H96.0417C96.0417 73.3045 96.0417 73.3045 95.9617 73.3045C95.9617 73.3045 95.9617 73.3045 95.9617 73.2246V69.4677C95.9617 69.4677 95.9617 69.4677 95.9617 69.3878C95.9617 69.3878 95.9618 69.3878 96.0417 69.3878H98.5995C98.5995 69.3878 98.5995 69.3878 98.6795 69.3878C98.6795 69.3878 98.6795 69.3878 98.6795 69.4677V70.0273ZM93.4838 69.4677C93.4838 69.3878 93.4838 69.3878 93.4838 69.4677L94.2032 69.3878C94.2032 69.3878 94.2032 69.3878 94.2832 69.3878C94.2832 69.3878 94.2832 69.3878 94.2832 69.4677V73.2246C94.2832 73.2246 94.2832 73.2246 94.2832 73.3045C94.2832 73.3045 94.2832 73.3045 94.2032 73.3045H93.5638C93.5638 73.3045 93.4838 73.3045 93.4838 73.2246L92.0451 70.8266V73.2246C92.0451 73.2246 92.0451 73.2246 92.0451 73.3045C92.0451 73.3045 92.0451 73.3045 91.9651 73.3045H91.3257C91.3257 73.3045 91.3257 73.3045 91.2457 73.3045C91.2457 73.3045 91.2457 73.3045 91.2457 73.2246V69.4677C91.2457 69.4677 91.2457 69.4677 91.2457 69.3878C91.2457 69.3878 91.2457 69.3878 91.3257 69.3878H91.9651C91.9651 69.3878 92.0451 69.3878 92.0451 69.4677L93.4838 71.8657V69.4677ZM88.7678 73.3045C88.7678 73.3045 88.6879 73.3045 88.7678 73.3045C88.6879 73.3045 88.6879 73.3045 88.7678 73.3045L88.6879 69.4677C88.6879 69.4677 88.6879 69.4677 88.6879 69.3878C88.6879 69.3878 88.6879 69.3878 88.7678 69.3878H89.4073C89.4073 69.3878 89.4073 69.3878 89.4872 69.3878C89.4872 69.3878 89.4872 69.3878 89.4872 69.4677V73.2246C89.4872 73.2246 89.4872 73.2246 89.4872 73.3045C89.4872 73.3045 89.4872 73.3045 89.4073 73.3045H88.7678ZM87.2491 70.0273C87.2491 70.0273 87.1692 70.0273 87.2491 70.0273C87.1692 70.1072 87.1692 70.1072 87.2491 70.0273L85.3307 70.1072V70.9864H86.5297C86.5297 70.9864 86.5297 70.9864 86.6096 70.9864C86.6096 70.9864 86.6096 70.9865 86.6096 71.0664V71.6259C86.6096 71.6259 86.6096 71.6259 86.6096 71.7058C86.6096 71.7058 86.6096 71.7058 86.5297 71.7058H85.3307V73.2246C85.3307 73.2246 85.3307 73.2246 85.3307 73.3045C85.3307 73.3045 85.3307 73.3045 85.2508 73.3045H84.6113C84.6113 73.3045 84.6113 73.3045 84.5314 73.3045C84.5314 73.3045 84.5314 73.3045 84.5314 73.2246V69.4677C84.5314 69.4677 84.5314 69.4677 84.5314 69.3878C84.5314 69.3878 84.5314 69.3878 84.6113 69.3878H87.1692C87.1692 69.3878 87.1692 69.3878 87.2491 69.3878C87.2491 69.3878 87.2491 69.3878 87.2491 69.4677V70.0273ZM82.9327 70.0273C82.9327 70.0273 82.8528 70.0273 82.9327 70.0273C82.8528 70.1072 82.8528 70.1072 82.9327 70.0273L81.0144 70.1072V70.9864H82.2134C82.2134 70.9864 82.2133 70.9864 82.2933 70.9864C82.2933 70.9864 82.2933 70.9865 82.2933 71.0664V71.6259C82.2933 71.6259 82.2933 71.6259 82.2933 71.7058C82.2933 71.7058 82.2933 71.7058 82.2134 71.7058H81.0144V72.5851H82.8528C82.8528 72.5851 82.8528 72.5851 82.9327 72.5851C82.9327 72.5851 82.9327 72.5851 82.9327 72.665V73.2246C82.9327 73.2246 82.9327 73.2246 82.9327 73.3045C82.9327 73.3045 82.9327 73.3045 82.8528 73.3045H80.295C80.295 73.3045 80.295 73.3045 80.215 73.3045C80.215 73.3045 80.215 73.3045 80.215 73.2246V69.4677C80.215 69.4677 80.215 69.4677 80.215 69.3878C80.215 69.3878 80.215 69.3878 80.295 69.3878H82.8528C82.8528 69.3878 82.8528 69.3878 82.9327 69.3878C82.9327 69.3878 82.9327 69.3878 82.9327 69.4677V70.0273ZM76.4582 72.665H77.1776C77.3375 72.665 77.4973 72.5851 77.5773 72.5052C77.6572 72.4252 77.7371 72.2654 77.7371 72.0256V70.7467C77.7371 70.5868 77.6572 70.4269 77.5773 70.2671C77.4973 70.1871 77.3375 70.1072 77.1776 70.1072H76.5381V72.665H76.4582ZM75.7388 73.3045C75.7388 73.3045 75.6589 73.3045 75.7388 73.3045C75.6589 73.3045 75.6589 73.3045 75.7388 73.3045L75.6589 69.4677C75.6589 69.4677 75.6589 69.4677 75.6589 69.3878C75.6589 69.3878 75.6589 69.3878 75.7388 69.3878H77.1776C77.4973 69.3878 77.7371 69.4677 77.897 69.5477C78.1368 69.6276 78.2966 69.7875 78.3766 69.9473C78.4565 70.1072 78.5364 70.347 78.5364 70.5868V72.1055C78.5364 72.3453 78.4565 72.5851 78.3766 72.745C78.2966 72.9048 78.1368 73.0647 77.897 73.1446C77.6572 73.2246 77.4174 73.3045 77.1776 73.3045H75.7388ZM74.0602 70.0273C74.0602 70.1072 73.9803 70.1072 74.0602 70.0273L72.1418 70.1072V70.9864H73.3408C73.3408 70.9864 73.3408 70.9864 73.4208 70.9864C73.4208 70.9864 73.4208 70.9865 73.4208 71.0664V71.6259C73.4208 71.6259 73.4208 71.6259 73.4208 71.7058C73.4208 71.7058 73.4208 71.7058 73.3408 71.7058H72.1418V72.5851H73.9803C73.9803 72.5851 73.9803 72.5851 74.0602 72.5851C74.0602 72.5851 74.0602 72.5851 74.0602 72.665V73.2246C74.0602 73.2246 74.0602 73.2246 74.0602 73.3045C74.0602 73.3045 74.0602 73.3045 73.9803 73.3045H71.4225C71.4225 73.3045 71.4225 73.3045 71.3425 73.3045C71.3425 73.3045 71.3425 73.3045 71.3425 73.2246V69.4677C71.3425 69.4677 71.3425 69.4677 71.3425 69.3878C71.3425 69.3878 71.3425 69.3878 71.4225 69.3878H73.9803C73.9803 69.3878 73.9803 69.3878 74.0602 69.3878C74.0602 69.3878 74.0602 69.3878 74.0602 69.4677V70.0273ZM67.6656 70.1072V71.0664H68.385C68.5449 71.0664 68.7047 70.9865 68.7847 70.9065C68.8646 70.8266 68.9445 70.6667 68.9445 70.5069C68.9445 70.347 68.8646 70.2671 68.7847 70.1072C68.7047 70.0273 68.5449 69.9473 68.385 69.9473H67.6656V70.1072ZM69.0245 73.3045C68.9445 73.3045 68.9445 73.3045 69.0245 73.3045L68.2252 71.7058H67.6656V73.2246C67.6656 73.2246 67.6656 73.2246 67.6656 73.3045C67.6656 73.3045 67.6656 73.3045 67.5857 73.3045H66.9462C66.9462 73.3045 66.9462 73.3045 66.8663 73.3045C66.8663 73.3045 66.8663 73.3045 66.8663 73.2246V69.4677C66.8663 69.4677 66.8663 69.4677 66.8663 69.3878C66.8663 69.3878 66.8663 69.3878 66.9462 69.3878H68.5449C68.7847 69.3878 69.0245 69.4677 69.1843 69.5477C69.3442 69.6276 69.5041 69.7875 69.584 69.9473C69.6639 70.1072 69.7439 70.347 69.7439 70.5868C69.7439 70.8266 69.6639 71.0664 69.584 71.2262C69.4241 71.3861 69.2643 71.546 69.0245 71.6259L69.8238 73.2246C69.8238 73.2246 69.8238 73.3045 69.7439 73.3045H69.0245ZM62.3101 73.3045C62.3101 73.3045 62.2302 73.3045 62.3101 73.3045C62.2302 73.3045 62.2302 73.3045 62.3101 73.3045L62.2302 71.7858L61.1112 69.4677C61.1112 69.4677 61.1112 69.3878 61.1911 69.3878H61.9105C61.9105 69.3878 61.9904 69.3878 61.9904 69.4677L62.7098 70.9864L63.4292 69.4677L63.5091 69.3878H64.2285H64.3085C64.3085 69.3878 64.3085 69.3878 64.3085 69.4677L63.1095 71.7858V73.2246C63.1095 73.2246 63.1095 73.2246 63.1095 73.3045C63.1095 73.3045 63.1095 73.3045 63.0295 73.3045H62.3101ZM58.3135 73.3844C57.9938 73.3844 57.754 73.3045 57.5142 73.2246C57.2744 73.1446 57.1145 72.9848 57.0346 72.745C56.9547 72.5052 56.8747 72.2654 56.8747 72.0256V70.7467C56.8747 70.5069 56.9547 70.2671 57.0346 70.0273C57.1145 69.7875 57.3543 69.6276 57.5142 69.5477C57.754 69.4677 57.9938 69.3878 58.3135 69.3878C58.6332 69.3878 58.873 69.4677 59.0329 69.5477C59.2727 69.6276 59.4326 69.7875 59.5125 70.0273C59.6724 70.1871 59.6724 70.4269 59.6724 70.7467C59.6724 70.7467 59.6724 70.8266 59.5924 70.8266H58.953C58.953 70.8266 58.873 70.8266 58.873 70.7467C58.873 70.5868 58.7931 70.4269 58.7132 70.2671C58.5533 70.1871 58.3934 70.1072 58.2336 70.1072C57.9938 70.1072 57.8339 70.1871 57.754 70.2671C57.5941 70.347 57.5941 70.5069 57.5941 70.7467V72.1055C57.5941 72.2654 57.674 72.4252 57.754 72.5851C57.9138 72.665 58.0737 72.745 58.2336 72.745C58.3934 72.745 58.5533 72.665 58.7132 72.5851C58.873 72.5052 58.873 72.3453 58.873 72.1055C58.873 72.0256 58.873 72.0256 58.953 72.0256H59.5924C59.5924 72.0256 59.5924 72.0256 59.6724 72.0256C59.6724 72.2654 59.5924 72.5052 59.5125 72.745C59.3526 72.9048 59.1928 73.0647 59.0329 73.2246C58.873 73.3045 58.6332 73.3844 58.3135 73.3844ZM53.2778 72.1055H54.3169L53.8373 70.4269L53.2778 72.1055ZM54.7165 73.3045C54.7165 73.3045 54.6366 73.3045 54.7165 73.3045L54.4767 72.665H53.1179L52.958 73.2246C52.958 73.2246 52.958 73.3045 52.8781 73.3045H52.1587C52.1587 73.3045 52.1587 73.3045 52.0788 73.3045C52.0788 73.3045 52.0788 73.3045 52.0788 73.2246L53.2778 69.4677C53.2778 69.4677 53.2778 69.3878 53.3577 69.3878H54.237C54.237 69.3878 54.3169 69.3878 54.3169 69.4677L55.5159 73.2246C55.5159 73.2246 55.5159 73.3045 55.4359 73.3045H54.7165ZM48.4818 70.1072V71.0664H49.2012C49.3611 71.0664 49.5209 70.9865 49.6009 70.9065C49.6808 70.8266 49.7607 70.6667 49.7607 70.5069C49.7607 70.347 49.6808 70.2671 49.6009 70.1072C49.5209 70.0273 49.3611 69.9473 49.2012 69.9473H48.4818V70.1072ZM49.8407 73.3045C49.7607 73.3045 49.7607 73.3045 49.8407 73.3045L49.0413 71.7058H48.4818V73.2246C48.4818 73.2246 48.4818 73.2246 48.4818 73.3045C48.4818 73.3045 48.4818 73.3045 48.4019 73.3045H47.7624C47.7624 73.3045 47.7624 73.3045 47.6825 73.3045C47.6825 73.3045 47.6825 73.3045 47.6825 73.2246V69.4677C47.6825 69.4677 47.6825 69.4677 47.6825 69.3878C47.6825 69.3878 47.6825 69.3878 47.7624 69.3878H49.3611C49.6009 69.3878 49.8407 69.4677 50.0005 69.5477C50.1604 69.6276 50.3203 69.7875 50.4002 69.9473C50.4801 70.1072 50.5601 70.347 50.5601 70.5868C50.5601 70.8266 50.4801 71.0664 50.4002 71.2262C50.2403 71.3861 50.0805 71.546 49.8407 71.6259L50.64 73.2246C50.64 73.2246 50.64 73.3045 50.5601 73.3045H49.8407ZM44.5651 73.3844C44.2454 73.3844 44.0056 73.3045 43.8457 73.2246C43.6059 73.1446 43.4461 72.9848 43.3661 72.745C43.2063 72.5052 43.2063 72.3453 43.2063 72.0256V69.4677C43.2063 69.4677 43.2063 69.4677 43.2063 69.3878C43.2063 69.3878 43.2063 69.3878 43.2862 69.3878H43.9257C43.9257 69.3878 43.9257 69.3878 44.0056 69.3878C44.0056 69.3878 44.0056 69.3878 44.0056 69.4677V72.0256C44.0056 72.1854 44.0855 72.3453 44.1654 72.5052C44.3253 72.665 44.4852 72.665 44.645 72.665C44.8049 72.665 44.9648 72.5851 45.1246 72.5052C45.2845 72.3453 45.2845 72.1854 45.2845 72.0256V69.4677C45.2845 69.4677 45.2845 69.4677 45.2845 69.3878C45.2845 69.3878 45.2845 69.3878 45.3644 69.3878H46.0039C46.0039 69.3878 46.0039 69.3878 46.0838 69.3878C46.0838 69.3878 46.0838 69.3878 46.0838 69.4677V72.0256C46.0838 72.2654 46.0039 72.5052 45.924 72.745C45.7641 72.9848 45.6042 73.1446 45.4444 73.2246C45.0447 73.3045 44.8049 73.3844 44.5651 73.3844ZM40.009 73.3844C39.6892 73.3844 39.4494 73.3045 39.2096 73.2246C38.9698 73.1446 38.81 72.9848 38.73 72.745C38.6501 72.5052 38.5702 72.2654 38.5702 72.0256V70.7467C38.5702 70.5069 38.6501 70.2671 38.73 70.0273C38.81 69.7875 39.0498 69.6276 39.2096 69.5477C39.4494 69.4677 39.6892 69.3878 40.009 69.3878C40.3287 69.3878 40.5685 69.4677 40.7284 69.5477C40.9682 69.6276 41.128 69.7875 41.2079 70.0273C41.3678 70.1871 41.3678 70.4269 41.3678 70.7467C41.3678 70.7467 41.3678 70.8266 41.2879 70.8266H40.6484C40.6484 70.8266 40.5685 70.8266 40.5685 70.7467C40.5685 70.5868 40.4886 70.4269 40.4086 70.2671C40.2488 70.1871 40.0889 70.1072 39.929 70.1072C39.6892 70.1072 39.5294 70.1871 39.4494 70.2671C39.2896 70.347 39.2896 70.5069 39.2896 70.7467V72.1055C39.2896 72.2654 39.3695 72.4252 39.4494 72.5851C39.6093 72.665 39.7692 72.745 39.929 72.745C40.0889 72.745 40.2488 72.665 40.4086 72.5851C40.5685 72.5052 40.5685 72.3453 40.5685 72.1055C40.5685 72.0256 40.5685 72.0256 40.6484 72.0256H41.2879C41.2879 72.0256 41.2879 72.0256 41.3678 72.0256C41.3678 72.2654 41.2879 72.5052 41.2079 72.745C41.0481 72.9048 40.8882 73.0647 40.7284 73.2246C40.5685 73.3045 40.3287 73.3844 40.009 73.3844ZM35.6127 73.3844C35.2929 73.3844 35.0531 73.3045 34.8133 73.2246C34.5735 73.1446 34.4137 72.9848 34.3337 72.745C34.2538 72.5052 34.1739 72.2654 34.1739 72.0256V70.7467C34.1739 70.5069 34.2538 70.2671 34.3337 70.0273C34.4137 69.7875 34.6535 69.6276 34.8133 69.5477C35.0531 69.4677 35.2929 69.3878 35.6127 69.3878C35.9324 69.3878 36.1722 69.4677 36.3321 69.5477C36.5719 69.6276 36.7317 69.7875 36.8117 70.0273C36.9715 70.1871 36.9715 70.4269 36.9715 70.7467C36.9715 70.7467 36.9715 70.8266 36.8916 70.8266H36.2521C36.2521 70.8266 36.1722 70.8266 36.1722 70.7467C36.1722 70.5868 36.0923 70.4269 36.0123 70.2671C35.8525 70.1871 35.6926 70.1072 35.5327 70.1072C35.2929 70.1072 35.1331 70.1871 35.0531 70.2671C34.8933 70.347 34.8933 70.5069 34.8933 70.7467V72.1055C34.8933 72.2654 34.9732 72.4252 35.0531 72.5851C35.213 72.665 35.3729 72.745 35.5327 72.745C35.6926 72.745 35.8525 72.665 36.0123 72.5851C36.1722 72.5052 36.1722 72.3453 36.1722 72.1055C36.1722 72.0256 36.1722 72.0256 36.2521 72.0256H36.8916C36.8916 72.0256 36.8916 72.0256 36.9715 72.0256C36.9715 72.2654 36.8916 72.5052 36.8117 72.745C36.6518 72.9048 36.4919 73.0647 36.3321 73.2246C36.0923 73.3045 35.8525 73.3844 35.6127 73.3844ZM30.497 72.1055H31.5361L31.0565 70.4269L30.497 72.1055ZM32.0157 73.3045C31.9358 73.3045 31.9358 73.3045 32.0157 73.3045L31.7759 72.665H30.4171L30.2572 73.2246C30.2572 73.2246 30.2572 73.3045 30.1773 73.3045H29.4579C29.4579 73.3045 29.4579 73.3045 29.3779 73.3045C29.3779 73.3045 29.3779 73.3045 29.3779 73.2246L30.5769 69.4677C30.5769 69.4677 30.5769 69.3878 30.6568 69.3878H31.5361C31.5361 69.3878 31.616 69.3878 31.616 69.4677L32.815 73.2246C32.815 73.2246 32.815 73.3045 32.7351 73.3045H32.0157Z" fill="#1280C4"/>
<path d="M2.84082 66.5102H13.5518" stroke="#7CC24B" stroke-width="1.3233" stroke-miterlimit="2.6131"/>
<path d="M27.8594 66.5102H113.387" stroke="#7CC24B" stroke-width="1.3119" stroke-miterlimit="2.6131"/>
<path fill-rule="evenodd" clip-rule="evenodd" d="M58.8735 13.9146H47.2833V5.04209H63.03C73.1015 5.68155 81.0148 11.2768 81.0148 21.9079C81.0148 31.26 73.661 38.0542 64.6286 39.0134H64.3089V43.2499H64.6286C76.4586 43.2499 85.571 33.6579 85.571 21.9079C85.571 10.3176 76.9382 0.805664 63.03 0.805664H42.4873V30.3008L58.8735 13.9146Z" fill="#1280C4"/>
<path fill-rule="evenodd" clip-rule="evenodd" d="M59.7529 18.3908L64.3091 13.8347V43.2498H59.7529V18.3908Z" fill="#7CC24B"/>
<path fill-rule="evenodd" clip-rule="evenodd" d="M51.1201 27.0236L55.5963 22.4674V43.2499H51.1201V27.0236Z" fill="#7CC24B"/>
<path fill-rule="evenodd" clip-rule="evenodd" d="M42.4072 35.4165L46.8834 30.8603V43.2499H42.4072V35.4165Z" fill="#7CC24B"/>
</svg>
