<svg width="141" height="35" viewBox="0 0 141 35" fill="none" xmlns="http://www.w3.org/2000/svg">
<g clip-path="url(#clip0_275_387)">
<path fill-rule="evenodd" clip-rule="evenodd" d="M0.977539 0.260086V33.829C0.977539 33.829 16.7924 35.2175 21.2272 23.2928C20.0557 24.4363 18.4659 25.0897 16.7924 25.253H11.6044V8.75444H16.5413C17.7128 8.91777 18.8843 9.40782 19.8047 10.1429H32.8582C32.8582 10.1429 30.6826 1.15852 19.972 0.341763L0.977539 0.260086Z" fill="#127DC2"/>
<path fill-rule="evenodd" clip-rule="evenodd" d="M10.9346 33.6658C10.9346 33.6658 23.1513 30.2354 22.9003 19.6992H17.1266V11.2049H38.9661V19.7808H33.6108C32.8578 27.05 30.0964 34.6459 10.9346 33.6658Z" fill="#F9A61C"/>
<path d="M126.157 12.1032C126.157 16.5137 129.84 20.0258 134.274 20.1074C134.274 20.1074 134.274 20.1074 134.358 20.1074C136.45 20.1074 138.374 19.3723 139.881 17.9839C140.048 17.8205 140.048 17.5755 139.881 17.4121L138.458 16.0236C138.29 15.8603 138.039 15.8603 137.872 16.0236C136.868 16.8404 135.697 17.2488 134.441 17.3304C131.513 17.2488 129.253 14.7985 129.421 12.0215C129.505 9.32617 131.764 7.20261 134.441 7.12094C135.697 7.12094 136.952 7.611 137.956 8.42772C138.039 8.59112 138.29 8.59112 138.458 8.50939C138.458 8.50939 138.542 8.50939 138.542 8.42772L139.881 6.79422C140.048 6.63085 140.048 6.38582 139.881 6.22247C138.374 4.83398 136.45 4.09889 134.358 4.18056C129.84 4.09889 126.157 7.611 126.157 12.1032ZM121.555 19.4541C121.555 19.699 121.723 19.8624 121.973 19.8624H124.065C124.317 19.8624 124.484 19.699 124.484 19.4541V4.7523C124.484 4.50727 124.317 4.34392 124.065 4.34392H121.89C121.639 4.34392 121.472 4.50727 121.472 4.7523L121.555 19.4541ZM101.975 19.3723C101.891 19.6174 102.059 19.7807 102.31 19.8624C102.394 19.8624 102.394 19.8624 102.477 19.8624H104.485C104.653 19.8624 104.82 19.699 104.903 19.5357L106.243 11.1231H106.326L110.343 19.8624C110.426 20.0258 110.594 20.1074 110.761 20.1074H111.179C111.347 20.1074 111.514 20.0258 111.598 19.8624L115.614 11.1231H115.698L117.037 19.5357C117.12 19.699 117.288 19.8624 117.455 19.8624H119.547C119.798 19.8624 119.965 19.699 119.965 19.5357C119.965 19.4541 119.965 19.4541 119.965 19.3723L117.288 4.50727C117.288 4.34392 117.12 4.18056 116.87 4.18056H116.535C116.367 4.18056 116.2 4.26224 116.116 4.42559L111.096 14.8801H111.012L105.991 4.42559C105.908 4.26224 105.741 4.18056 105.573 4.18056H105.238C105.071 4.18056 104.82 4.34392 104.82 4.50727L101.975 19.3723ZM92.5198 14.5535L94.7793 9.6529H94.8623L97.1217 14.5535H92.5198ZM87.6667 19.7807H89.675C89.9255 19.7807 90.2604 19.6174 90.3441 19.3723L91.432 17.0038H98.2096L99.2974 19.3723C99.3812 19.6174 99.6324 19.8624 99.9666 19.7807H101.975C102.226 19.7807 102.394 19.6174 102.394 19.4541C102.394 19.3723 102.394 19.2907 102.31 19.209L95.3647 4.34392C95.281 4.18056 95.1135 4.09889 94.9461 4.09889H94.6955C94.5281 4.09889 94.3606 4.18056 94.2769 4.34392L87.2481 19.2907C87.1643 19.4541 87.2481 19.699 87.4155 19.7807C87.4993 19.7807 87.583 19.8624 87.6667 19.7807ZM73.1067 19.3723C73.1067 19.6174 73.2742 19.7807 73.5254 19.7807H75.6173C75.8679 19.7807 76.0353 19.6174 76.0353 19.3723V9.89789L85.491 20.1074H86.0765C86.3277 20.1074 86.4951 19.9441 86.4951 19.699V4.7523C86.4951 4.50727 86.3277 4.34392 86.0765 4.34392H83.9845C83.734 4.34392 83.5665 4.50727 83.5665 4.7523V13.9L74.1108 4.09889H73.5254C73.2742 4.09889 73.1067 4.26224 73.1067 4.50727V19.3723ZM64.3208 19.3723C64.3208 19.6174 64.4882 19.7807 64.7392 19.7807H66.8311C67.0821 19.7807 67.2495 19.6174 67.2495 19.3723V12.2665L72.5213 4.91565C72.6887 4.7523 72.605 4.50727 72.4375 4.34392C72.2701 4.34392 72.1863 4.34392 72.1026 4.34392H69.7595C69.5927 4.34392 69.5089 4.42559 69.4252 4.50727L65.827 9.6529L62.2289 4.50727C62.0615 4.42559 61.8942 4.34392 61.8105 4.34392H59.4676C59.2166 4.34392 59.0492 4.50727 59.0492 4.7523C59.0492 4.83398 59.0492 4.91565 59.1329 4.99733L64.3208 12.4298V19.3723ZM49.0918 17.0854V6.95755H51.6857C54.5307 6.95755 56.8736 9.24451 56.8736 12.0215C56.8736 14.7985 54.5307 17.0854 51.6857 17.0854H49.0918ZM46.1631 19.3723C46.1631 19.6174 46.3304 19.7807 46.5815 19.7807H51.9367C56.2879 19.7807 59.886 16.2686 59.886 12.0215C59.886 7.77433 56.2879 4.26224 51.9367 4.26224H46.5815C46.3304 4.34392 46.1631 4.50727 46.1631 4.7523V19.3723Z" fill="#127DC2"/>
<path d="M136.281 31.3788C136.281 31.4604 136.365 31.6238 136.533 31.6238H137.62C137.704 31.6238 137.872 31.5421 137.872 31.3788V25.1713H139.629C139.712 25.1713 139.88 25.0897 139.88 24.9263V24.0279C139.88 23.9462 139.796 23.7828 139.629 23.7828H134.692C134.608 23.7828 134.441 23.8645 134.441 24.0279V24.9263C134.441 25.008 134.524 25.1713 134.692 25.1713H136.449L136.281 31.3788ZM126.659 31.3788C126.659 31.4604 126.743 31.6238 126.91 31.6238H127.998C128.082 31.6238 128.165 31.5421 128.249 31.3788V28.6017H131.094C131.177 28.6017 131.345 28.5201 131.345 28.3568V27.4583C131.345 27.3766 131.261 27.2132 131.094 27.2132H128.249V25.0897H131.596C131.68 25.0897 131.847 25.008 131.847 24.8446V23.9462C131.847 23.8645 131.763 23.7012 131.596 23.7012H126.994C126.91 23.7012 126.743 23.7828 126.743 23.9462L126.659 31.3788ZM116.283 27.785C116.283 26.3965 117.454 25.253 118.877 25.253C120.299 25.253 121.471 26.3965 121.471 27.785C121.471 29.1735 120.299 30.317 118.877 30.317C117.371 30.317 116.283 29.1735 116.283 27.785ZM114.777 27.785C114.777 29.9903 116.618 31.7872 118.877 31.7872C121.136 31.7872 122.977 29.9903 122.977 27.785C122.977 25.5797 121.136 23.7828 118.877 23.7828C116.618 23.7828 114.777 25.4981 114.777 27.785C114.777 27.7033 114.777 27.7033 114.777 27.785ZM106.577 30.8887C107.246 31.4604 108.166 31.7872 109.087 31.7872C110.426 31.8688 111.597 30.9704 111.681 29.6635V29.5819C111.681 28.1117 110.426 27.54 109.338 27.0499C108.417 26.7232 107.999 26.3148 107.999 25.8247C107.999 25.3347 108.501 25.008 109.004 25.008C109.589 25.0897 110.091 25.3347 110.593 25.6614C110.761 25.7431 110.928 25.6614 111.012 25.4981L111.43 24.8446C111.513 24.763 111.513 24.5996 111.346 24.518C110.677 24.0279 109.924 23.7828 109.087 23.7828C107.33 23.7828 106.577 24.9263 106.577 25.9065C106.577 27.2132 107.664 27.8667 108.752 28.275C109.84 28.6834 110.174 29.0101 110.174 29.5819C110.091 30.0719 109.673 30.4803 109.17 30.3986C108.585 30.317 107.999 30.0719 107.413 29.7452C107.33 29.6635 107.162 29.6635 107.078 29.8269L106.66 30.4803C106.493 30.6436 106.493 30.7253 106.577 30.8887ZM96.6192 27.785C96.6192 26.3965 97.7908 25.253 99.2129 25.253C100.636 25.253 101.807 26.3965 101.807 27.785C101.807 29.1735 100.636 30.317 99.2129 30.317C97.7908 30.317 96.6192 29.1735 96.6192 27.785ZM95.1127 27.785C95.1127 29.9903 96.9542 31.7872 99.2129 31.7872C101.472 31.7872 103.313 29.9903 103.313 27.785C103.313 25.5797 101.472 23.7828 99.2129 23.7828C96.9542 23.7828 95.1127 25.4981 95.1127 27.785C95.1127 27.7033 95.1127 27.7033 95.1127 27.785ZM84.6536 31.3788C84.6536 31.4604 84.7373 31.5421 84.9048 31.6238H85.992C86.0757 31.6238 86.2431 31.5421 86.2431 31.3788V26.6415L91.0125 31.7054H91.2637C91.3475 31.7054 91.5149 31.6238 91.5149 31.5421V24.0279C91.5149 23.9462 91.4312 23.7828 91.2637 23.7828H90.2596C90.1759 23.7828 90.0091 23.8645 90.0091 24.0279V28.6017L85.3228 23.7012H85.0716C84.9885 23.7012 84.9048 23.7828 84.821 23.8645L84.6536 31.3788ZM73.7758 31.3788C73.7758 31.4604 73.8595 31.6238 74.0263 31.6238H75.1142C75.1979 31.6238 75.3654 31.5421 75.3654 31.3788V28.275H79.0469V31.3788C79.0469 31.4604 79.1306 31.6238 79.2981 31.6238H80.3859C80.4697 31.6238 80.6371 31.5421 80.6371 31.3788V24.0279C80.6371 23.9462 80.5534 23.7828 80.3859 23.7828H79.2981C79.2143 23.7828 79.0469 23.8645 79.0469 23.9462V26.8866H75.3654V24.0279C75.3654 23.9462 75.2816 23.7828 75.1142 23.7828H74.0263C73.9432 23.7828 73.7758 23.8645 73.7758 24.0279V31.3788ZM63.2324 27.785C63.2324 29.9903 65.0732 31.7872 67.2488 31.7872C68.2528 31.7872 69.2569 31.3788 70.0099 30.7253C70.0936 30.6436 70.0936 30.4803 70.0099 30.3986L69.3407 29.6635C69.2569 29.5819 69.1732 29.5819 69.0895 29.6635C68.5877 30.0719 68.0016 30.317 67.3324 30.317C65.91 30.2353 64.7386 29.0101 64.8222 27.6216C64.9059 26.3148 65.9937 25.253 67.3324 25.1713C68.0016 25.1713 68.5877 25.4164 69.0895 25.8247C69.1732 25.9065 69.2569 25.9065 69.3407 25.8247L70.0099 25.1713C70.0936 25.0897 70.0936 24.9263 70.0099 24.8446C69.2569 24.1912 68.2528 23.7828 67.2488 23.7828C65.0732 23.7828 63.2324 25.4981 63.2324 27.785C63.2324 27.7033 63.2324 27.785 63.2324 27.785ZM54.9484 31.3788C54.9484 31.4604 55.0321 31.6238 55.1995 31.6238H59.8016C59.8853 31.6238 60.0526 31.5421 60.0526 31.3788V30.4803C60.0526 30.3986 59.969 30.2353 59.8016 30.2353H56.4546V28.275H59.2159C59.2996 28.275 59.4669 28.1934 59.4669 28.1117V27.2132C59.4669 27.1316 59.3833 26.9682 59.2159 26.9682H56.4546V25.1713H59.8016C59.8853 25.1713 60.0526 25.0897 60.0526 24.9263V24.0279C60.0526 23.9462 59.969 23.7828 59.8016 23.7828H55.1995C55.1158 23.7828 54.9484 23.8645 54.9484 24.0279V31.3788ZM48.1707 31.3788C48.1707 31.4604 48.2543 31.5421 48.338 31.5421H49.4258C49.5094 31.5421 49.6768 31.4604 49.6768 31.2971V25.0897H51.434C51.5177 25.0897 51.6851 25.008 51.6851 24.8446V23.9462C51.6851 23.8645 51.6014 23.7012 51.434 23.7012H46.4971C46.4134 23.7012 46.2461 23.7828 46.2461 23.9462V24.8446C46.2461 24.9263 46.3298 25.0897 46.4971 25.0897H48.2543L48.1707 31.3788Z" fill="#F9A61C"/>
</g>
<defs>
<clipPath id="clip0_275_387">
<rect width="140" height="34" fill="white" transform="translate(0.329102 0.0950317)"/>
</clipPath>
</defs>
</svg>
