<svg width="129" height="46" viewBox="0 0 129 46" fill="none" xmlns="http://www.w3.org/2000/svg">
<g clip-path="url(#clip0_275_392)">
<path d="M27.6748 18.1914H28.3862C30.8787 18.4018 33.1876 19.5852 34.8124 21.4849C36.4372 23.3847 37.2468 25.8477 37.0656 28.3398V34.9065C37.0656 37.4933 34.2199 37.2659 34.2199 34.9065V28.1408C34.3379 26.4393 33.7796 24.7599 32.6663 23.4668C31.5529 22.1737 29.9742 21.3711 28.2724 21.2331C28.2222 20.1955 28.0209 19.1709 27.6748 18.1914Z" fill="#F8B95A"/>
<path d="M9.43388 24.4453C7.72454 24.5834 6.13858 25.389 5.01989 26.6874C3.90121 27.9859 3.33997 29.6725 3.45789 31.3815V38.1187C3.45789 40.4497 0.811376 40.6772 0.612176 38.1187V31.6374C0.511039 30.392 0.656976 29.1389 1.04162 27.9499C1.42626 26.761 2.04205 25.6596 2.85367 24.7088C3.66529 23.7581 4.65678 22.9767 5.77131 22.4096C6.88583 21.8424 8.10146 21.5005 9.3485 21.4036L9.43388 24.4453Z" fill="#42AEE3"/>
<path fill-rule="evenodd" clip-rule="evenodd" d="M9.49051 21.4036C9.50272 18.9072 10.4758 16.5112 12.2081 14.7119C13.9405 12.9126 16.2993 11.8479 18.796 11.7384H19.1375C21.0491 11.8172 22.891 12.4774 24.4167 13.6306C25.9424 14.7839 27.0791 16.3751 27.6746 18.1914C28.0207 19.1709 28.222 20.1955 28.2722 21.2331V37.3228C28.3992 37.954 28.3843 38.6055 28.2287 39.2303C28.073 39.8551 27.7804 40.4375 27.372 40.9356C26.9636 41.4338 26.4497 41.8351 25.8671 42.1107C25.2846 42.3862 24.6482 42.5292 24.0036 42.5292C23.3591 42.5292 22.7226 42.3862 22.1401 42.1107C21.5576 41.8351 21.0436 41.4338 20.6352 40.9356C20.2268 40.4375 19.9343 39.8551 19.7786 39.2303C19.6229 38.6055 19.6081 37.954 19.7351 37.3228V28.3114C19.6655 26.3808 20.1443 24.47 21.1162 22.7999C22.0881 21.1297 23.5134 19.7685 25.2273 18.8736C24.7841 17.6012 23.9645 16.4931 22.8771 15.6962C21.7896 14.8992 20.4856 14.4509 19.1375 14.4106H18.796C17.9028 14.429 17.0219 14.6231 16.2038 14.9817C15.3857 15.3404 14.6464 15.8565 14.028 16.5006C13.4096 17.1447 12.9243 17.9042 12.5999 18.7358C12.2754 19.5673 12.1181 20.4545 12.137 21.3468V21.9153C13.9832 22.7594 15.5338 24.1368 16.5889 25.8697C17.6439 27.6026 18.155 29.6115 18.0561 31.6374V40.7909C18.1831 41.4221 18.1682 42.0736 18.0126 42.6984C17.8569 43.3232 17.5643 43.9056 17.1559 44.4037C16.7476 44.9019 16.2336 45.3032 15.651 45.5787C15.0685 45.8543 14.4321 45.9973 13.7875 45.9973C13.143 45.9973 12.5065 45.8543 11.924 45.5787C11.3415 45.3032 10.8275 44.9019 10.4191 44.4037C10.0107 43.9056 9.71816 43.3232 9.56249 42.6984C9.40682 42.0736 9.39196 41.4221 9.51896 40.7909V21.4036H9.49051ZM12.1086 25.2128V40.5919C12.1086 43.2072 15.2958 43.4346 15.3527 40.5919V31.3815C15.3822 30.1625 15.0997 28.9561 14.532 27.8766C13.9643 26.7971 13.1302 25.8803 12.1086 25.2128ZM25.6826 22.0006C24.6646 22.6629 23.8342 23.5755 23.2711 24.6507C22.708 25.726 22.4311 26.9278 22.4669 28.1408V37.4933C22.4669 40.1655 25.7111 39.9665 25.6826 37.4933V22.0006Z" fill="#F0504B"/>
<path fill-rule="evenodd" clip-rule="evenodd" d="M14.357 5.14336C14.3074 4.51774 14.3879 3.88864 14.5935 3.29562C14.7991 2.7026 15.1253 2.1585 15.5516 1.69755C15.9779 1.23659 16.4951 0.86876 17.0707 0.617183C17.6462 0.365607 18.2677 0.235733 18.8959 0.235733C19.5241 0.235733 20.1456 0.365607 20.7211 0.617183C21.2967 0.86876 21.8139 1.23659 22.2402 1.69755C22.6665 2.1585 22.9927 2.7026 23.1983 3.29562C23.4039 3.88864 23.4844 4.51774 23.4348 5.14336C23.3443 6.28387 22.8269 7.34844 21.9857 8.12483C21.1444 8.90121 20.0412 9.33239 18.8959 9.33239C17.7506 9.33239 16.6474 8.90121 15.8061 8.12483C14.9649 7.34844 14.4475 6.28387 14.357 5.14336ZM16.6905 5.14336C16.6905 4.70481 16.8207 4.27612 17.0646 3.91148C17.3085 3.54685 17.6551 3.26265 18.0607 3.09483C18.4663 2.927 18.9126 2.8831 19.3432 2.96865C19.7737 3.05421 20.1692 3.26538 20.4797 3.57548C20.7901 3.88558 21.0015 4.28067 21.0871 4.71078C21.1728 5.1409 21.1288 5.58672 20.9608 5.99188C20.7928 6.39704 20.5083 6.74334 20.1433 6.98698C19.7783 7.23062 19.3491 7.36066 18.9101 7.36066C18.6186 7.36066 18.33 7.30331 18.0607 7.19188C17.7914 7.08045 17.5467 6.91712 17.3406 6.71123C17.1345 6.50533 16.971 6.2609 16.8594 5.99188C16.7479 5.72287 16.6905 5.43454 16.6905 5.14336Z" fill="#F0504B"/>
<path fill-rule="evenodd" clip-rule="evenodd" d="M2.23438 16.3152C2.23437 15.5843 2.45134 14.8698 2.85784 14.2621C3.26434 13.6543 3.84211 13.1807 4.51809 12.901C5.19407 12.6213 5.9379 12.5481 6.65552 12.6907C7.37314 12.8333 8.03231 13.1852 8.54968 13.7021C9.06706 14.2189 9.41939 14.8774 9.56214 15.5942C9.70488 16.3111 9.63162 17.0541 9.35162 17.7294C9.07162 18.4047 8.59745 18.9818 7.98909 19.3879C7.38072 19.794 6.66547 20.0107 5.9338 20.0107C5.44798 20.0107 4.96692 19.9151 4.51809 19.7294C4.06926 19.5437 3.66143 19.2715 3.31791 18.9283C2.62413 18.2353 2.23438 17.2953 2.23438 16.3152ZM4.11254 16.3152C4.11254 15.8327 4.30442 15.3699 4.64598 15.0287C4.98753 14.6875 5.45077 14.4958 5.9338 14.4958C6.41682 14.4958 6.88007 14.6875 7.22162 15.0287C7.56317 15.3699 7.75505 15.8327 7.75505 16.3152C7.75505 16.7977 7.56317 17.2604 7.22162 17.6016C6.88007 17.9428 6.41682 18.1345 5.9338 18.1345C5.45077 18.1345 4.98753 17.9428 4.64598 17.6016C4.30442 17.2604 4.11254 16.7977 4.11254 16.3152Z" fill="#42AEE3"/>
<path fill-rule="evenodd" clip-rule="evenodd" d="M27.6748 13.7283C27.6748 12.9974 27.8918 12.2829 28.2983 11.6752C28.7048 11.0675 29.2825 10.5938 29.9585 10.3141C30.6345 10.0344 31.3783 9.96122 32.0959 10.1038C32.8136 10.2464 33.4727 10.5984 33.9901 11.1152C34.5075 11.632 34.8598 12.2905 35.0026 13.0074C35.1453 13.7242 35.072 14.4673 34.792 15.1425C34.512 15.8178 34.0379 16.395 33.4295 16.801C32.8211 17.2071 32.1059 17.4238 31.3742 17.4238C30.3931 17.4238 29.4521 17.0345 28.7583 16.3414C28.0646 15.6484 27.6748 14.7084 27.6748 13.7283ZM29.553 13.7283C29.553 13.3685 29.6598 13.0167 29.8599 12.7176C30.06 12.4184 30.3445 12.1852 30.6773 12.0475C31.0101 11.9098 31.3762 11.8738 31.7295 11.944C32.0828 12.0142 32.4073 12.1874 32.662 12.4419C32.9168 12.6963 33.0902 13.0205 33.1605 13.3734C33.2308 13.7263 33.1947 14.0921 33.0568 14.4246C32.919 14.757 32.6856 15.0411 32.3861 15.241C32.0866 15.441 31.7344 15.5477 31.3742 15.5477C30.8961 15.5402 30.4402 15.3452 30.1048 15.0048C29.7693 14.6645 29.5814 14.206 29.5814 13.7283H29.553Z" fill="#F8B95A"/>
<path fill-rule="evenodd" clip-rule="evenodd" d="M57.583 27.1459L51.6355 17.9071V27.1459H49.2451V9.40741L57.583 22.1427L65.921 9.40741V27.1459H63.5306V17.9071L57.583 27.1459Z" fill="#231F20"/>
<path fill-rule="evenodd" clip-rule="evenodd" d="M76.0517 11.8237V20.0391H82.113V22.4838H76.0517V24.7012H83.9058V27.1459H73.6328V9.40741H83.9058V11.8237H76.0517Z" fill="#231F20"/>
<path fill-rule="evenodd" clip-rule="evenodd" d="M100.069 27.1459L96.9388 23.1092H94.2923V27.0606H91.7881V9.40741H96.1989C97.5598 9.41661 98.8877 9.82672 100.016 10.5864C101.145 11.346 102.024 12.4214 102.543 13.6779C103.063 14.9344 103.2 16.3161 102.937 17.6499C102.674 18.9837 102.023 20.2104 101.065 21.1762C100.6 21.6358 100.074 22.0281 99.5 22.3417L103.285 27.1459H100.069ZM96.1989 20.6929C97.3638 20.6854 98.4784 20.2179 99.2995 19.3924C100.121 18.5669 100.581 17.4504 100.581 16.2868C100.581 15.1257 100.12 14.0122 99.2978 13.1912C98.4759 12.3702 97.3612 11.909 96.1989 11.909H94.2923V20.6929H96.1989Z" fill="#231F20"/>
<path fill-rule="evenodd" clip-rule="evenodd" d="M119.79 27.1459C117.744 27.1381 115.764 26.4223 114.186 25.1203C112.609 23.8182 111.532 22.0104 111.139 20.0044C110.745 17.9984 111.06 15.9183 112.029 14.118C112.998 12.3177 114.562 10.9085 116.454 10.1302C118.346 9.35195 120.45 9.25268 122.407 9.8493C124.364 10.4459 126.054 11.7016 127.189 13.4026C128.323 15.1036 128.833 17.1448 128.631 19.1789C128.428 21.213 127.527 23.1142 126.079 24.559C125.264 25.3977 124.286 26.0601 123.204 26.5051C122.122 26.9501 120.96 27.1682 119.79 27.1459ZM119.79 11.7384C118.928 11.7244 118.072 11.8861 117.275 12.2136C116.477 12.541 115.755 13.0274 115.152 13.643C114.05 14.8963 113.467 16.5216 113.521 18.1888C113.575 19.8561 114.262 21.4403 115.443 22.6198C116.623 23.7993 118.209 24.4857 119.878 24.5397C121.547 24.5936 123.174 24.0111 124.429 22.9103C125.348 21.9958 125.975 20.8289 126.229 19.5579C126.484 18.2869 126.354 16.969 125.857 15.7717C125.36 14.5745 124.518 13.5518 123.437 12.8337C122.357 12.1155 121.088 11.7343 119.79 11.7384Z" fill="#231F20"/>
<path fill-rule="evenodd" clip-rule="evenodd" d="M51.4932 33.0587L53.7129 30.614V36.7826H53.2291V31.8648L51.4932 33.7978L49.7289 31.8648V36.7826H49.2451V30.614L51.4932 33.0587Z" fill="#F0504B"/>
<path fill-rule="evenodd" clip-rule="evenodd" d="M66.0069 36.2994H68.3119V36.7826H65.5231V33.144H64.7832L65.0678 32.6607H65.5231V30.7277H68.3119V31.211H66.0069V32.6607H67.4866V33.144H66.0069V36.2994Z" fill="#F0504B"/>
<path fill-rule="evenodd" clip-rule="evenodd" d="M81.7717 33.0587L83.9913 30.614V36.7826H83.5076V31.8648L81.7717 33.7978L80.0073 31.8648V36.7826H79.4951V30.614L81.7717 33.0587Z" fill="#F0504B"/>
<path fill-rule="evenodd" clip-rule="evenodd" d="M96.2852 33.144V36.3278H97.1104C97.3233 36.3304 97.5344 36.2888 97.7304 36.2056C97.9263 36.1224 98.1028 35.9995 98.2487 35.8446C98.4954 35.5929 98.6515 35.2666 98.6927 34.9168C98.7339 34.5671 98.6578 34.2135 98.4764 33.9115C98.3361 33.6755 98.1278 33.4873 97.8788 33.3714C97.6498 33.2236 97.3831 33.1447 97.1104 33.144H96.2852ZM96.2852 32.6607H97.4235C97.5198 32.6595 97.6149 32.6386 97.7029 32.5995C97.791 32.5604 97.8702 32.5039 97.9357 32.4333C98.0004 32.3708 98.0515 32.2956 98.0857 32.2124C98.12 32.1293 98.1367 32.04 98.1349 31.9501C98.1394 31.853 98.1211 31.7562 98.0816 31.6673C98.0421 31.5785 97.9824 31.5001 97.9072 31.4384C97.8498 31.3655 97.7762 31.3071 97.6922 31.2676C97.6083 31.2281 97.5162 31.2087 97.4235 31.211H96.2852V32.6607ZM98.1349 32.9166C98.4495 33.094 98.7139 33.3483 98.9032 33.6557C99.0833 33.9878 99.1809 34.3583 99.1878 34.7359C99.1913 35.1059 99.0928 35.4698 98.9032 35.7877C98.7329 36.1001 98.476 36.3567 98.1633 36.5268C97.8451 36.7162 97.4809 36.8145 97.1104 36.8111H95.8014V33.144H95.0615L95.3461 32.6607H95.8014V30.7277H97.4235C97.6755 30.7353 97.919 30.8205 98.1207 30.9716C98.3224 31.1228 98.4725 31.3325 98.5503 31.572C98.6282 31.8116 98.6301 32.0693 98.5557 32.31C98.4813 32.5507 98.3344 32.7625 98.1349 32.9166Z" fill="#F0504B"/>
<path fill-rule="evenodd" clip-rule="evenodd" d="M111.311 36.2994H113.616V36.7826H110.827V33.144H110.087L110.371 32.6607H110.827V30.7277H113.616V31.211H111.311V32.6607H112.79V33.144H111.311V36.2994Z" fill="#F0504B"/>
<path fill-rule="evenodd" clip-rule="evenodd" d="M126.506 30.7277C126.883 30.7378 127.254 30.8351 127.587 31.012C127.913 31.2092 128.187 31.4823 128.384 31.8079C128.577 32.1452 128.675 32.5282 128.669 32.9166C128.661 33.2419 128.583 33.5618 128.441 33.8547C128.299 34.1585 128.084 34.4222 127.815 34.6222C127.567 34.8221 127.274 34.9587 126.961 35.0202L128.498 36.8111H127.843L126.364 35.077H125.908V36.8111H125.424V31.1257H124.685L124.969 30.6424L126.506 30.7277ZM125.908 34.4801H126.506C126.73 34.4872 126.954 34.4451 127.16 34.3567C127.367 34.2683 127.551 34.1358 127.701 33.9684C128.005 33.6559 128.179 33.2389 128.185 32.8029C128.192 32.481 128.103 32.1643 127.929 31.8932C127.779 31.6479 127.561 31.4506 127.303 31.3247C127.061 31.1812 126.787 31.1029 126.506 31.0972H125.908V34.4801Z" fill="#F0504B"/>
</g>
<defs>
<clipPath id="clip0_275_392">
<rect width="128" height="45" fill="white" transform="translate(0.668945 0.595032)"/>
</clipPath>
</defs>
</svg>
